<svg width="132" height="36" viewBox="0 0 132 36" fill="none" xmlns="http://www.w3.org/2000/svg">
<path d="M21.1659 16.7413C21.14 12.8795 24.3287 10.9875 24.4843 10.9098C22.6696 8.26614 19.8697 7.90329 18.8586 7.87737C16.4995 7.61819 14.2181 9.30286 12.9996 9.30286C11.7811 9.30286 9.91456 7.90329 7.91835 7.95512C5.3518 8.00696 2.94079 9.48428 1.61863 11.791C-1.10347 16.508 0.91866 23.4281 3.53706 27.2121C4.8333 29.0782 6.36287 31.1517 8.35907 31.0739C10.3034 30.9962 11.0293 29.8299 13.3885 29.8299C15.7217 29.8299 16.3958 31.0739 18.4438 31.0221C20.5437 30.9962 21.8659 29.156 23.1103 27.264C24.6139 25.1387 25.2102 23.0134 25.2361 22.9098C25.2361 22.9098 21.2178 21.3806 21.1659 16.7413ZM17.3291 5.36333C18.366 4.04152 19.0919 2.2791 18.8845 0.464844C17.355 0.542598 15.4625 1.52748 14.3736 2.79746C13.4144 3.93785 12.533 5.77802 12.7663 7.51452C14.4773 7.64411 16.2402 6.65923 17.3291 5.36333Z" fill="white"/>
<path d="M49.4319 30.8146H46.7095L45.2056 26.1235H40.02L38.5939 30.8146H35.9492L41.083 14.8492H44.2722L49.4319 30.8146ZM44.7648 24.1537L43.4166 19.9809C43.261 19.5663 43.0017 18.5555 42.6128 16.9745H42.5609C42.4054 17.6483 42.1461 18.6591 41.809 19.9809L40.4867 24.1537H44.7648ZM62.6294 24.9054C62.6294 26.8751 62.0849 28.4043 61.0219 29.5447C60.0625 30.5555 58.8958 31.0738 57.4697 31.0738C55.9399 31.0738 54.8509 30.5295 54.1768 29.441V35.4799H51.6358V23.0652C51.6358 21.847 51.6099 20.5771 51.5321 19.2812H53.7879L53.9435 21.0954H53.9953C54.8509 19.7218 56.1474 19.022 57.8846 19.022C59.2328 19.022 60.3737 19.5663 61.2812 20.6289C62.1887 21.7434 62.6294 23.1689 62.6294 24.9054ZM60.0366 25.009C60.0366 23.8946 59.7773 22.9615 59.2847 22.2358C58.7402 21.4842 57.9883 21.0954 57.0548 21.0954C56.4326 21.0954 55.8621 21.3028 55.3436 21.7174C54.825 22.1321 54.4879 22.6764 54.3324 23.3762C54.2546 23.6354 54.2287 23.8946 54.2027 24.1537V26.0717C54.2027 26.901 54.462 27.6267 54.9806 28.1969C55.4991 28.7671 56.1733 29.0522 56.9771 29.0522C57.9364 29.0522 58.6883 28.6894 59.2328 27.9377C59.7773 27.212 60.0366 26.2272 60.0366 25.009ZM75.9047 24.9054C75.9047 26.8751 75.3602 28.4043 74.2972 29.5447C73.3378 30.5555 72.171 31.0738 70.745 31.0738C69.2152 31.0738 68.1262 30.5295 67.4521 29.441V35.4799H64.8852V23.0652C64.8852 21.847 64.8593 20.5771 64.7815 19.2812H67.0372L67.1928 21.0954H67.2447C68.1003 19.7218 69.3967 19.022 71.1339 19.022C72.4822 19.022 73.623 19.5663 74.5305 20.6289C75.438 21.7434 75.9047 23.1689 75.9047 24.9054ZM73.286 25.009C73.286 23.8946 73.0267 22.9615 72.534 22.2358C71.9895 21.4842 71.2376 21.0954 70.3042 21.0954C69.6819 21.0954 69.1115 21.3028 68.5929 21.7174C68.0744 22.1321 67.7373 22.6764 67.5817 23.3762C67.5039 23.6872 67.4521 23.9464 67.4521 24.1537V26.0717C67.4521 26.901 67.7114 27.6267 68.2299 28.1969C68.7485 28.7671 69.4226 29.0522 70.2264 29.0522C71.1858 29.0522 71.9377 28.6894 72.4822 27.9377C73.0267 27.212 73.286 26.2272 73.286 25.009ZM90.7098 26.3308C90.7098 27.6786 90.2431 28.793 89.2837 29.6483C88.2466 30.5814 86.7946 31.0479 84.9278 31.0479C83.2165 31.0479 81.8423 30.711 80.7792 30.063L81.3756 27.9377C82.4905 28.6116 83.7351 28.9226 85.0833 28.9226C86.0427 28.9226 86.7946 28.7153 87.3391 28.2747C87.8836 27.8341 88.1429 27.2639 88.1429 26.5382C88.1429 25.8902 87.9095 25.346 87.4687 24.9054C87.028 24.4647 86.302 24.0501 85.2648 23.6613C82.4646 22.6246 81.0644 21.0954 81.0644 19.0738C81.0644 17.752 81.5571 16.6894 82.5424 15.86C83.5276 15.0306 84.85 14.6159 86.4575 14.6159C87.9095 14.6159 89.1281 14.8751 90.0875 15.3676L89.4393 17.441C88.5318 16.9485 87.5206 16.7153 86.3797 16.7153C85.4723 16.7153 84.7722 16.9485 84.2536 17.3892C83.8388 17.7779 83.6054 18.2704 83.6054 18.8406C83.6054 19.4626 83.8388 20.0069 84.3314 20.3956C84.7463 20.7844 85.5241 21.1732 86.665 21.6397C88.0392 22.184 89.0504 22.8319 89.6986 23.5835C90.3986 24.3092 90.7098 25.2164 90.7098 26.3308ZM99.1883 21.225H96.3621V26.8233C96.3621 28.2488 96.8548 28.9485 97.866 28.9485C98.3327 28.9485 98.6957 28.9226 99.0068 28.819L99.0846 30.7628C98.592 30.9442 97.9178 31.0479 97.0881 31.0479C96.0769 31.0479 95.2991 30.7369 94.7287 30.1149C94.1582 29.4928 93.873 28.4561 93.873 27.0047V21.1991H92.1877V19.2812H93.873V17.1818L96.3881 16.4302V19.3071H99.2142L99.1883 21.225ZM111.893 24.9572C111.893 26.7196 111.375 28.171 110.363 29.3114C109.3 30.4777 107.9 31.0738 106.137 31.0738C104.452 31.0738 103.103 30.5036 102.092 29.3892C101.081 28.2747 100.588 26.8492 100.588 25.1386C100.588 23.3503 101.107 21.8989 102.144 20.7585C103.181 19.6181 104.581 19.0479 106.319 19.0479C108.004 19.0479 109.378 19.6181 110.389 20.7326C111.401 21.8211 111.893 23.2466 111.893 24.9572ZM109.249 25.009C109.249 23.9464 109.015 23.0393 108.574 22.2876C108.03 21.3805 107.278 20.914 106.267 20.914C105.23 20.914 104.452 21.3805 103.907 22.2876C103.441 23.0393 103.233 23.9723 103.233 25.0609C103.233 26.1235 103.466 27.0306 103.907 27.7822C104.452 28.6894 105.23 29.1559 106.241 29.1559C107.226 29.1559 107.978 28.6894 108.548 27.7563C109.015 26.9788 109.249 26.0717 109.249 25.009ZM120.216 21.536C119.957 21.4842 119.672 21.4583 119.412 21.4583C118.505 21.4583 117.805 21.7952 117.338 22.4691C116.923 23.0652 116.69 23.8168 116.69 24.7498V30.7887H114.123V22.9097C114.123 21.6915 114.097 20.4993 114.045 19.2812H116.275L116.379 21.4842H116.457C116.716 20.7326 117.157 20.1105 117.727 19.6699C118.272 19.2812 118.92 19.0479 119.568 19.0479C119.801 19.0479 120.009 19.0738 120.216 19.0997V21.536ZM131.676 24.5166C131.676 24.9054 131.651 25.2941 131.573 25.6829H123.898C123.924 26.8233 124.287 27.7045 125.013 28.3006C125.661 28.8449 126.491 29.1041 127.528 29.1041C128.669 29.1041 129.706 28.9226 130.639 28.5598L131.028 30.3222C129.939 30.7887 128.643 31.022 127.165 31.022C125.376 31.022 123.976 30.5036 122.965 29.441C121.953 28.3784 121.435 26.9788 121.435 25.2164C121.435 23.4799 121.902 22.0285 122.861 20.8881C123.846 19.644 125.194 19.0479 126.88 19.0479C128.539 19.0479 129.81 19.6699 130.639 20.8881C131.339 21.873 131.676 23.0652 131.676 24.5166ZM129.239 23.8427C129.265 23.0911 129.084 22.4172 128.747 21.873C128.306 21.1473 127.632 20.8103 126.698 20.8103C125.869 20.8103 125.168 21.1473 124.65 21.847C124.235 22.3913 123.976 23.0652 123.898 23.8427H129.239ZM39.294 9.19909C38.5939 9.19909 37.9716 9.17317 37.4531 9.09542V1.37187C38.1791 1.2682 38.905 1.21637 39.631 1.21637C42.5609 1.21637 43.9092 2.66777 43.9092 5.0263C43.9092 7.72177 42.3016 9.19909 39.294 9.19909ZM39.7088 2.20125C39.3199 2.20125 38.9828 2.22717 38.6976 2.279V8.13645C38.8532 8.16237 39.1384 8.16237 39.5532 8.16237C41.4719 8.16237 42.5609 7.07382 42.5609 5.0263C42.5609 3.21205 41.5757 2.20125 39.7088 2.20125ZM48.1096 9.25092C46.4502 9.25092 45.3871 8.00686 45.3871 6.34812C45.3871 4.61162 46.4761 3.36755 48.2133 3.36755C49.8468 3.36755 50.9358 4.53386 50.9358 6.27036C50.9358 8.00686 49.7949 9.25092 48.1096 9.25092ZM48.1614 4.27468C47.254 4.27468 46.6576 5.12997 46.6576 6.3222C46.6576 7.48851 47.254 8.3438 48.1355 8.3438C49.0171 8.3438 49.6134 7.43667 49.6134 6.29628C49.6394 5.12997 49.043 4.27468 48.1614 4.27468ZM60.3737 3.47123L58.6105 9.12133H57.4438L56.7178 6.65913C56.5363 6.06302 56.3807 5.44099 56.2511 4.81896H56.2251C56.1214 5.44099 55.9659 6.06302 55.7584 6.65913L54.9806 9.12133H53.8138L52.1544 3.47123H53.4508L54.099 6.16669C54.2546 6.81464 54.3842 7.41075 54.4879 7.98095H54.5139C54.6176 7.51442 54.7472 6.91831 54.9806 6.16669L55.7844 3.47123H56.8215L57.5993 6.11485C57.7808 6.7628 57.9364 7.38483 58.066 7.98095H58.092C58.1698 7.41075 58.2994 6.78872 58.4809 6.11485L59.181 3.47123H60.3737ZM66.8817 9.12133H65.6371V5.88159C65.6371 4.87079 65.2482 4.37835 64.4963 4.37835C63.7443 4.37835 63.2258 5.0263 63.2258 5.752V9.12133H61.9553V5.07814C61.9553 4.5857 61.9553 4.04142 61.9034 3.47123H63.0184L63.0702 4.35244H63.0961C63.4332 3.75632 64.1333 3.36755 64.8852 3.36755C66.0779 3.36755 66.8557 4.27468 66.8557 5.752L66.8817 9.12133ZM70.3561 9.12133H69.0856V0.853516H70.3561V9.12133ZM74.9454 9.25092C73.286 9.25092 72.2229 8.00686 72.2229 6.34812C72.2229 4.61162 73.3119 3.36755 75.0491 3.36755C76.6826 3.36755 77.7716 4.53386 77.7716 6.27036C77.7716 8.00686 76.6307 9.25092 74.9454 9.25092ZM74.9972 4.27468C74.0897 4.27468 73.4934 5.12997 73.4934 6.3222C73.4934 7.48851 74.0897 8.3438 74.9713 8.3438C75.8529 8.3438 76.4492 7.43667 76.4492 6.29628C76.4492 5.12997 75.8788 4.27468 74.9972 4.27468ZM82.7239 9.12133L82.6201 8.47339H82.5942C82.2053 8.99175 81.6608 9.25092 80.9348 9.25092C79.9236 9.25092 79.1976 8.55114 79.1976 7.59218C79.1976 6.19261 80.4162 5.46691 82.5164 5.46691V5.36324C82.5164 4.61162 82.1275 4.24876 81.3497 4.24876C80.7792 4.24876 80.3125 4.37835 79.8717 4.66345L79.6125 3.83408C80.131 3.49714 80.7792 3.34164 81.5571 3.34164C83.035 3.34164 83.7869 4.11917 83.7869 5.67425V7.74768C83.7869 8.31788 83.8128 8.75848 83.8647 9.09542L82.7239 9.12133ZM82.5424 6.29628C81.1422 6.29628 80.4422 6.63321 80.4422 7.43667C80.4422 8.03278 80.8052 8.31788 81.2978 8.31788C81.946 8.31788 82.5424 7.82544 82.5424 7.17749V6.29628ZM89.8801 9.12133L89.8282 8.21421H89.8023C89.4393 8.88807 88.8429 9.25092 87.9873 9.25092C86.6131 9.25092 85.6019 8.0587 85.6019 6.37403C85.6019 4.61161 86.639 3.36755 88.091 3.36755C88.8429 3.36755 89.3874 3.62673 89.6986 4.14509H89.7245V0.853516H90.995V7.59218C90.995 8.13645 91.0209 8.65481 91.0468 9.12133H89.8801ZM89.6986 5.80384C89.6986 5.00038 89.18 4.32652 88.3762 4.32652C87.4428 4.32652 86.8724 5.15589 86.8724 6.3222C86.8724 7.46259 87.4687 8.24012 88.3503 8.24012C89.1541 8.24012 89.6986 7.54034 89.6986 6.73689V5.80384ZM98.955 9.25092C97.2956 9.25092 96.2325 8.00686 96.2325 6.34812C96.2325 4.61162 97.3215 3.36755 99.0587 3.36755C100.692 3.36755 101.781 4.53386 101.781 6.27036C101.781 8.00686 100.64 9.25092 98.955 9.25092ZM99.0068 4.27468C98.0993 4.27468 97.5289 5.12997 97.5289 6.3222C97.5289 7.48851 98.1253 8.3438 99.0068 8.3438C99.8884 8.3438 100.485 7.43667 100.485 6.29628C100.459 5.12997 99.8884 4.27468 99.0068 4.27468ZM108.548 9.12133H107.278V5.88159C107.278 4.87079 106.889 4.37835 106.137 4.37835C105.385 4.37835 104.893 5.0263 104.893 5.752V9.12133H103.622V5.07814C103.622 4.5857 103.622 4.04142 103.57 3.47123H104.685L104.737 4.35244H104.763C105.1 3.75632 105.8 3.36755 106.552 3.36755C107.745 3.36755 108.522 4.27468 108.522 5.752V9.12133H108.548ZM117.001 4.40427H115.627V7.15157C115.627 7.85136 115.86 8.18829 116.353 8.18829C116.586 8.18829 116.768 8.16237 116.923 8.13645L116.949 9.09542C116.716 9.19909 116.379 9.22501 115.964 9.22501C114.979 9.22501 114.382 8.68073 114.382 7.25524V4.40427H113.553V3.47123H114.382V2.43451L115.627 2.07166V3.47123H117.001V4.40427ZM123.665 9.12133H122.42V5.90751C122.42 4.89671 122.031 4.37835 121.279 4.37835C120.631 4.37835 120.009 4.81896 120.009 5.72609V9.14725H118.764V0.853516H120.009V4.24876H120.035C120.424 3.62673 120.994 3.31572 121.746 3.31572C122.939 3.31572 123.665 4.24876 123.665 5.72609V9.12133ZM130.484 6.6073H126.698C126.724 7.66993 127.424 8.29196 128.487 8.29196C129.058 8.29196 129.55 8.18829 130.017 8.03278L130.224 8.91399C129.68 9.14725 129.058 9.25092 128.332 9.25092C126.569 9.25092 125.506 8.13645 125.506 6.39995C125.506 4.66345 126.569 3.36755 128.176 3.36755C129.628 3.36755 130.536 4.43019 130.536 6.06302C130.536 6.21853 130.536 6.39995 130.484 6.6073ZM129.343 5.70017C129.343 4.81896 128.902 4.19693 128.098 4.19693C127.372 4.19693 126.802 4.81896 126.724 5.70017H129.343Z" fill="white"/>
</svg>
