<svg width="139" height="33" viewBox="0 0 139 33" fill="none" xmlns="http://www.w3.org/2000/svg">
<path d="M44.8797 4.24377C44.8797 5.20343 44.6397 6.04314 44.0397 6.64293C43.3197 7.36268 42.4797 7.72255 41.3997 7.72255C40.3197 7.72255 39.4797 7.36268 38.7597 6.64293C38.0397 5.92318 37.6797 5.08348 37.6797 4.00385C37.6797 2.92423 38.0397 2.08453 38.7597 1.36478C39.4797 0.64503 40.3197 0.285156 41.3997 0.285156C41.8797 0.285156 42.3597 0.405114 42.8397 0.64503C43.3197 0.884946 43.6797 1.12486 43.9197 1.48474L43.3197 2.08453C42.8397 1.48474 42.2397 1.24482 41.3997 1.24482C40.6797 1.24482 39.9597 1.48474 39.4797 2.08453C38.8797 2.56436 38.6397 3.28411 38.6397 4.12381C38.6397 4.96352 38.8797 5.68327 39.4797 6.1631C40.0797 6.64293 40.6797 7.0028 41.3997 7.0028C42.2397 7.0028 42.8397 6.76289 43.4397 6.1631C43.7997 5.80322 44.0397 5.32339 44.0397 4.7236H41.3997V3.76394H44.8797V4.24377ZM50.3997 1.24482H47.1597V3.52402H50.1597V4.36373H47.1597V6.64293H50.3997V7.60259H46.1997V0.405114H50.3997V1.24482ZM54.3597 7.60259H53.3997V1.24482H51.3597V0.405114H56.3997V1.24482H54.3597V7.60259ZM59.8797 7.60259V0.405114H60.8397V7.60259H59.8797ZM64.9197 7.60259H63.9597V1.24482H61.9197V0.405114H66.8397V1.24482H64.7997V7.60259H64.9197ZM76.3197 6.64293C75.5997 7.36268 74.7597 7.72255 73.6797 7.72255C72.5997 7.72255 71.7597 7.36268 71.0397 6.64293C70.3197 5.92318 69.9597 5.08348 69.9597 4.00385C69.9597 2.92423 70.3197 2.08453 71.0397 1.36478C71.7597 0.64503 72.5997 0.285156 73.6797 0.285156C74.7597 0.285156 75.5997 0.64503 76.3197 1.36478C77.0397 2.08453 77.3997 2.92423 77.3997 4.00385C77.3997 5.08348 77.0397 5.92318 76.3197 6.64293ZM71.7597 6.04314C72.2397 6.52297 72.9597 6.88285 73.6797 6.88285C74.3997 6.88285 75.1197 6.64293 75.5997 6.04314C76.0797 5.56331 76.4397 4.84356 76.4397 4.00385C76.4397 3.16415 76.1997 2.4444 75.5997 1.96457C75.1197 1.48474 74.3997 1.12486 73.6797 1.12486C72.9597 1.12486 72.2397 1.36478 71.7597 1.96457C71.2797 2.4444 70.9197 3.16415 70.9197 4.00385C70.9197 4.84356 71.1597 5.56331 71.7597 6.04314ZM78.7197 7.60259V0.405114H79.7997L83.2797 6.04314V0.405114H84.2397V7.60259H83.2797L79.5597 1.72465V7.60259H78.7197Z" fill="white"/>
<path d="M69.7204 18.1595C66.8403 18.1595 64.5603 20.3188 64.5603 23.3177C64.5603 26.1967 66.8403 28.4759 69.7204 28.4759C72.6004 28.4759 74.8804 26.3167 74.8804 23.3177C74.8804 20.1988 72.6004 18.1595 69.7204 18.1595ZM69.7204 26.3167C68.1604 26.3167 66.8403 24.9971 66.8403 23.1977C66.8403 21.3984 68.1604 20.0788 69.7204 20.0788C71.2804 20.0788 72.6004 21.2784 72.6004 23.1977C72.6004 24.9971 71.2804 26.3167 69.7204 26.3167ZM58.5603 18.1595C55.6803 18.1595 53.4003 20.3188 53.4003 23.3177C53.4003 26.1967 55.6803 28.4759 58.5603 28.4759C61.4403 28.4759 63.7203 26.3167 63.7203 23.3177C63.7203 20.1988 61.4403 18.1595 58.5603 18.1595ZM58.5603 26.3167C57.0003 26.3167 55.6803 24.9971 55.6803 23.1977C55.6803 21.3984 57.0003 20.0788 58.5603 20.0788C60.1203 20.0788 61.4403 21.2784 61.4403 23.1977C61.4403 24.9971 60.1203 26.3167 58.5603 26.3167ZM45.2403 19.719V21.8782H50.4003C50.2803 23.0778 49.8003 24.0375 49.2003 24.6372C48.4803 25.357 47.2803 26.1967 45.2403 26.1967C42.0003 26.1967 39.6003 23.6776 39.6003 20.4387C39.6003 17.1998 42.1203 14.6807 45.2403 14.6807C46.9203 14.6807 48.2403 15.4005 49.2003 16.2402L50.7603 14.6807C49.4403 13.4811 47.7603 12.5215 45.3603 12.5215C41.0403 12.5215 37.3203 16.1202 37.3203 20.4387C37.3203 24.7572 41.0403 28.3559 45.3603 28.3559C47.7603 28.3559 49.4403 27.6362 50.8803 26.0767C52.3203 24.6372 52.8003 22.598 52.8003 21.0385C52.8003 20.5587 52.8003 20.0788 52.6803 19.719H45.2403ZM99.7204 21.3984C99.2404 20.1988 98.0404 18.1595 95.4004 18.1595C92.7604 18.1595 90.6004 20.1988 90.6004 23.3177C90.6004 26.1967 92.7604 28.4759 95.6404 28.4759C97.9204 28.4759 99.3604 27.0364 99.8404 26.1967L98.1604 24.9971C97.5604 25.8368 96.8404 26.4366 95.6404 26.4366C94.4404 26.4366 93.7204 25.9568 93.1204 24.8772L99.9604 21.9982L99.7204 21.3984ZM92.7604 23.0778C92.7604 21.1585 94.3204 20.0788 95.4004 20.0788C96.2404 20.0788 97.0804 20.5587 97.3204 21.1585L92.7604 23.0778ZM87.1204 27.9961H89.4004V13.0013H87.1204V27.9961ZM83.5204 19.2391C82.9204 18.6393 81.9604 18.0396 80.7604 18.0396C78.2404 18.0396 75.8404 20.3188 75.8404 23.1977C75.8404 26.0767 78.1204 28.236 80.7604 28.236C81.9604 28.236 82.9204 27.6362 83.4004 27.0364H83.5204V27.7562C83.5204 29.6755 82.4404 30.7551 80.7604 30.7551C79.4404 30.7551 78.4804 29.7954 78.2404 28.9557L76.3204 29.7954C76.9204 31.115 78.3604 32.7944 80.8804 32.7944C83.5204 32.7944 85.6804 31.2349 85.6804 27.5162V18.3994H83.5204V19.2391ZM80.8804 26.3167C79.3204 26.3167 78.0004 24.9971 78.0004 23.1977C78.0004 21.3984 79.3204 20.0788 80.8804 20.0788C82.4404 20.0788 83.6404 21.3984 83.6404 23.1977C83.6404 24.9971 82.4404 26.3167 80.8804 26.3167ZM110.16 13.0013H104.76V27.9961H107.04V22.358H110.16C112.68 22.358 115.08 20.5587 115.08 17.6797C115.08 14.8007 112.68 13.0013 110.16 13.0013ZM110.28 20.1988H107.04V15.0406H110.28C111.96 15.0406 112.92 16.4801 112.92 17.5597C112.8 18.8793 111.84 20.1988 110.28 20.1988ZM124.08 18.0396C122.4 18.0396 120.72 18.7593 120.12 20.3188L122.16 21.1585C122.64 20.3188 123.36 20.0788 124.2 20.0788C125.4 20.0788 126.48 20.7986 126.6 21.9982V22.1181C126.24 21.8782 125.28 21.5183 124.32 21.5183C122.16 21.5183 120 22.7179 120 24.8772C120 26.9164 121.8 28.236 123.72 28.236C125.28 28.236 126 27.5162 126.6 26.7965H126.72V27.9961H128.88V22.2381C128.64 19.599 126.6 18.0396 124.08 18.0396ZM123.84 26.3167C123.12 26.3167 122.04 25.9568 122.04 24.9971C122.04 23.7975 123.36 23.4377 124.44 23.4377C125.4 23.4377 125.88 23.6776 126.48 23.9175C126.24 25.357 125.04 26.3167 123.84 26.3167ZM136.44 18.3994L133.92 24.8772H133.8L131.16 18.3994H128.76L132.72 27.5162L130.44 32.5545H132.72L138.84 18.3994H136.44ZM116.28 27.9961H118.56V13.0013H116.28V27.9961Z" fill="white"/>
<path d="M0.479999 1.00586C0.119999 1.36573 0 1.96552 0 2.68527V29.196C0 29.9157 0.24 30.5155 0.6 30.8754L0.72 30.9954L15.6 16.1206V15.8807L0.479999 1.00586Z" fill="url(#paint0_linear_37157_6510)"/>
<path d="M20.4005 21.1574L15.4805 16.2391V15.8792L20.4005 10.9609L20.5205 11.0809L26.4005 14.4397C28.0805 15.3994 28.0805 16.9588 26.4005 17.9185L20.4005 21.1574Z" fill="url(#paint1_linear_37157_6510)"/>
<path d="M20.5205 21.0382L15.4805 16L0.480469 30.9948C1.08047 31.5946 1.92047 31.5946 3.00047 31.1147L20.5205 21.0382Z" fill="url(#paint2_linear_37157_6510)"/>
<path d="M20.5205 10.9622L3.00047 1.00566C1.92047 0.40587 1.08047 0.525828 0.480469 1.12562L15.4805 16.0004L20.5205 10.9622Z" fill="url(#paint3_linear_37157_6510)"/>
<path opacity="0.2" d="M20.4005 20.918L3.00047 30.7545C2.04047 31.3543 1.20047 31.2343 0.600469 30.7545L0.480469 30.8745L0.600469 30.9944C1.20047 31.4743 2.04047 31.5942 3.00047 30.9944L20.4005 20.918Z" fill="#424551"/>
<path opacity="0.2" d="M0.479999 30.7548C0.119999 30.395 0 29.7952 0 29.0754V29.1954C0 29.9151 0.24 30.5149 0.599999 30.8748V30.7548H0.479999ZM26.4 17.5595L20.4 20.9183L20.52 21.0382L26.4 17.6794C27.24 17.1996 27.6 16.5998 27.6 16C27.6 16.5998 27.12 17.0796 26.4 17.5595Z" fill="#424551"/>
<path opacity="0.2" d="M3 1.12521L26.4 14.4406C27.12 14.9204 27.6 15.4002 27.6 16C27.6 15.4002 27.24 14.8004 26.4 14.3206L3 1.00525C1.32 0.0455899 0 0.765338 0 2.68467V2.80463C0 1.00525 1.32 0.165548 3 1.12521Z" fill="white"/>
<defs>
<linearGradient id="paint0_linear_37157_6510" x1="14.16" y1="2.45735" x2="-5.97257" y2="22.5957" gradientUnits="userSpaceOnUse">
<stop stop-color="#00A0FF"/>
<stop offset="0.007" stop-color="#00A1FF"/>
<stop offset="0.26" stop-color="#00BEFF"/>
<stop offset="0.512" stop-color="#00D2FF"/>
<stop offset="0.76" stop-color="#00DFFF"/>
<stop offset="1" stop-color="#00E3FF"/>
</linearGradient>
<linearGradient id="paint1_linear_37157_6510" x1="28.6013" y1="16.0004" x2="-0.435186" y2="16.0004" gradientUnits="userSpaceOnUse">
<stop stop-color="#FFE000"/>
<stop offset="0.409" stop-color="#FFBD00"/>
<stop offset="0.775" stop-color="#FFA500"/>
<stop offset="1" stop-color="#FF9C00"/>
</linearGradient>
<linearGradient id="paint2_linear_37157_6510" x1="17.7929" y1="18.7542" x2="-9.50721" y2="46.0639" gradientUnits="userSpaceOnUse">
<stop stop-color="#FF3A44"/>
<stop offset="1" stop-color="#C31162"/>
</linearGradient>
<linearGradient id="paint3_linear_37157_6510" x1="-3.24313" y1="-7.78006" x2="8.9482" y2="4.41555" gradientUnits="userSpaceOnUse">
<stop stop-color="#32A071"/>
<stop offset="0.069" stop-color="#2DA771"/>
<stop offset="0.476" stop-color="#15CF74"/>
<stop offset="0.801" stop-color="#06E775"/>
<stop offset="1" stop-color="#00F076"/>
</linearGradient>
</defs>
</svg>
