<svg width="12" height="13" viewBox="0 0 12 13" fill="none" xmlns="http://www.w3.org/2000/svg">
<path fill-rule="evenodd" clip-rule="evenodd" d="M5.08461 1.60081C5.43198 0.799732 6.56802 0.799731 6.91539 1.60081L7.9662 4.02406L10.5956 4.27461C11.4648 4.35743 11.8158 5.43787 11.1613 6.01578L9.18137 7.76399L9.75561 10.3421C9.94543 11.1944 9.02636 11.8621 8.27447 11.4182L6 10.0754L3.72553 11.4182C2.97364 11.8621 2.05457 11.1944 2.24439 10.3421L2.81863 7.76399L0.838693 6.01579C0.184171 5.43787 0.535225 4.35743 1.40444 4.27461L4.0338 4.02406L5.08461 1.60081ZM7.05081 4.421L6 1.99775L4.94919 4.421C4.80462 4.75441 4.49021 4.98284 4.12845 5.01731L1.49908 5.26786L3.47901 7.01606C3.75142 7.25659 3.87152 7.6262 3.79251 7.98091L3.21828 10.559L5.49275 9.2162C5.80568 9.03145 6.19432 9.03145 6.50725 9.2162L8.78172 10.559L8.20749 7.98091C8.12848 7.6262 8.24858 7.25659 8.52099 7.01606L10.5009 5.26786L7.87155 5.01731C7.50979 4.98284 7.19538 4.7544 7.05081 4.421Z" fill="#787A80"/>
</svg>
