<svg width="16" height="17" viewBox="0 0 16 17" fill="none" xmlns="http://www.w3.org/2000/svg">
<path fill-rule="evenodd" clip-rule="evenodd" d="M6.5663 14.3327C6.65931 14.3327 6.74553 14.2832 6.79257 14.2026L6.79667 14.1956L9.85417 9.23885L9.85417 2.66602L4.13029 2.66601C4.00747 2.66601 3.90125 2.75127 3.87464 2.87102L3.87232 2.88142L2.17235 9.52115C2.1412 9.68209 2.26454 9.83268 2.42951 9.83268L5.02083 9.83268C5.45495 9.83268 5.89423 9.97772 6.21404 10.2899C6.55025 10.618 6.70612 11.088 6.60609 11.5943L6.12686 14.02C6.09486 14.1819 6.2188 14.3327 6.38375 14.3327L6.5663 14.3327ZM11.1875 2.66602L11.1875 8.76125L13.5498 8.76125C13.6936 8.76125 13.8106 8.64524 13.8117 8.50128C13.8117 8.50128 13.8117 8.50128 13.8117 8.50128L13.8542 2.92987C13.8553 2.78458 13.7377 2.66602 13.5923 2.66602L11.1875 2.66602ZM10.8929 10.0946L7.93945 14.8827C7.65257 15.3678 7.13068 15.666 6.5663 15.666L6.38375 15.666C5.37861 15.666 4.62399 14.7476 4.81881 13.7616L5.29804 11.3359C5.30657 11.2927 5.30104 11.2731 5.29971 11.2688C5.29823 11.264 5.29497 11.256 5.28274 11.244C5.25485 11.2168 5.17182 11.166 5.02083 11.166L2.42951 11.166C1.40886 11.166 0.650896 10.2208 0.872281 9.22461L0.87459 9.21421L2.57573 2.56996C2.74227 1.84623 3.38674 1.33268 4.13029 1.33268L13.5923 1.33268C14.478 1.33268 15.1942 2.0543 15.1875 2.94003C15.1875 2.94001 15.1875 2.94004 15.1875 2.94003L15.145 8.51146C15.1383 9.38765 14.4261 10.0946 13.5498 10.0946L10.8929 10.0946Z" fill="#FF4242"/>
</svg>
